<mxfile host="app.diagrams.net" modified="2023-05-28T20:18:38.179Z" agent="Mozilla/5.0 (Macintosh; Intel Mac OS X 10_15_7) AppleWebKit/537.36 (KHTML, like Gecko) Chrome/113.0.0.0 Safari/537.36" etag="nminhWn4CSKf4VokZ70_" version="21.3.5" type="github">
  <diagram name="Page-1" id="XS_dt15CcSUX4DF8-uGM">
    <mxGraphModel dx="1306" dy="708" grid="1" gridSize="10" guides="1" tooltips="1" connect="1" arrows="1" fold="1" page="1" pageScale="1" pageWidth="850" pageHeight="1100" math="0" shadow="0">
      <root>
        <mxCell id="0" />
        <mxCell id="1" parent="0" />
        <mxCell id="ZGd59PmrkyYw04epXtnP-1" value="Actor" style="shape=umlActor;verticalLabelPosition=bottom;verticalAlign=top;html=1;outlineConnect=0;" vertex="1" parent="1">
          <mxGeometry x="40" y="277" width="50" height="60" as="geometry" />
        </mxCell>
        <mxCell id="ZGd59PmrkyYw04epXtnP-2" style="edgeStyle=orthogonalEdgeStyle;rounded=0;orthogonalLoop=1;jettySize=auto;html=1;" edge="1" parent="1" source="ZGd59PmrkyYw04epXtnP-4" target="ZGd59PmrkyYw04epXtnP-43">
          <mxGeometry relative="1" as="geometry">
            <Array as="points">
              <mxPoint x="180" y="455" />
            </Array>
          </mxGeometry>
        </mxCell>
        <mxCell id="ZGd59PmrkyYw04epXtnP-3" style="edgeStyle=orthogonalEdgeStyle;rounded=0;orthogonalLoop=1;jettySize=auto;html=1;" edge="1" parent="1" source="ZGd59PmrkyYw04epXtnP-4" target="ZGd59PmrkyYw04epXtnP-39">
          <mxGeometry relative="1" as="geometry">
            <Array as="points">
              <mxPoint x="170" y="195" />
            </Array>
          </mxGeometry>
        </mxCell>
        <mxCell id="ZGd59PmrkyYw04epXtnP-4" value="" style="outlineConnect=0;dashed=0;verticalLabelPosition=bottom;verticalAlign=top;align=center;html=1;shape=mxgraph.aws3.elastic_load_balancing;fillColor=#F58534;gradientColor=none;" vertex="1" parent="1">
          <mxGeometry x="160" y="270" width="60" height="63.5" as="geometry" />
        </mxCell>
        <mxCell id="ZGd59PmrkyYw04epXtnP-5" value="" style="strokeColor=#dddddd;shadow=1;strokeWidth=1;rounded=1;absoluteArcSize=1;arcSize=2;" vertex="1" parent="1">
          <mxGeometry x="60" y="50" width="120" height="44" as="geometry" />
        </mxCell>
        <mxCell id="ZGd59PmrkyYw04epXtnP-6" value="CDN&#xa;Interconnect" style="sketch=0;dashed=0;connectable=0;html=1;fillColor=#757575;strokeColor=none;shape=mxgraph.gcp2.google_network_edge_cache;part=1;labelPosition=right;verticalLabelPosition=middle;align=left;verticalAlign=middle;spacingLeft=5;fontSize=12;" vertex="1" parent="ZGd59PmrkyYw04epXtnP-5">
          <mxGeometry y="0.5" width="32" height="32" relative="1" as="geometry">
            <mxPoint x="5" y="-16" as="offset" />
          </mxGeometry>
        </mxCell>
        <mxCell id="ZGd59PmrkyYw04epXtnP-7" value="" style="shape=singleArrow;direction=north;whiteSpace=wrap;html=1;arrowWidth=0.26666666666666666;arrowSize=0.43333333333333335;" vertex="1" parent="1">
          <mxGeometry x="50" y="110" width="30" height="50" as="geometry" />
        </mxCell>
        <mxCell id="ZGd59PmrkyYw04epXtnP-8" value="" style="shape=singleArrow;direction=north;whiteSpace=wrap;html=1;arrowWidth=0.26666666666666666;arrowSize=0.43333333333333335;rotation=-179;" vertex="1" parent="1">
          <mxGeometry x="160" y="110" width="30" height="50" as="geometry" />
        </mxCell>
        <mxCell id="ZGd59PmrkyYw04epXtnP-9" value="" style="shape=singleArrow;direction=north;whiteSpace=wrap;html=1;rotation=90;" vertex="1" parent="1">
          <mxGeometry x="110" y="278.5" width="20" height="65" as="geometry" />
        </mxCell>
        <mxCell id="ZGd59PmrkyYw04epXtnP-10" style="edgeStyle=orthogonalEdgeStyle;rounded=0;orthogonalLoop=1;jettySize=auto;html=1;entryX=0;entryY=0.5;entryDx=0;entryDy=0;entryPerimeter=0;exitX=0.57;exitY=0.5;exitDx=0;exitDy=0;exitPerimeter=0;" edge="1" parent="1" source="ZGd59PmrkyYw04epXtnP-11" target="ZGd59PmrkyYw04epXtnP-32">
          <mxGeometry relative="1" as="geometry">
            <Array as="points">
              <mxPoint x="560" y="229" />
              <mxPoint x="560" y="185" />
            </Array>
          </mxGeometry>
        </mxCell>
        <mxCell id="ZGd59PmrkyYw04epXtnP-11" value="" style="sketch=0;aspect=fixed;pointerEvents=1;shadow=0;dashed=0;html=1;strokeColor=none;labelPosition=center;verticalLabelPosition=bottom;verticalAlign=top;align=center;fillColor=#00188D;shape=mxgraph.mscae.enterprise.application_server" vertex="1" parent="1">
          <mxGeometry x="490" y="200" width="50" height="58.14" as="geometry" />
        </mxCell>
        <mxCell id="ZGd59PmrkyYw04epXtnP-12" style="edgeStyle=orthogonalEdgeStyle;rounded=0;orthogonalLoop=1;jettySize=auto;html=1;exitX=0.302;exitY=0.54;exitDx=0;exitDy=0;exitPerimeter=0;" edge="1" parent="1" source="ZGd59PmrkyYw04epXtnP-13" target="ZGd59PmrkyYw04epXtnP-32">
          <mxGeometry relative="1" as="geometry" />
        </mxCell>
        <mxCell id="ZGd59PmrkyYw04epXtnP-13" value="" style="sketch=0;aspect=fixed;pointerEvents=1;shadow=0;dashed=0;html=1;strokeColor=none;labelPosition=center;verticalLabelPosition=bottom;verticalAlign=top;align=center;fillColor=#00188D;shape=mxgraph.mscae.enterprise.application_server" vertex="1" parent="1">
          <mxGeometry x="490" y="293.5" width="43" height="50" as="geometry" />
        </mxCell>
        <mxCell id="ZGd59PmrkyYw04epXtnP-14" style="edgeStyle=orthogonalEdgeStyle;rounded=0;orthogonalLoop=1;jettySize=auto;html=1;entryX=1;entryY=0.25;entryDx=0;entryDy=0;entryPerimeter=0;" edge="1" parent="1" source="ZGd59PmrkyYw04epXtnP-30" target="ZGd59PmrkyYw04epXtnP-21">
          <mxGeometry relative="1" as="geometry">
            <mxPoint x="423" y="395" as="sourcePoint" />
          </mxGeometry>
        </mxCell>
        <mxCell id="ZGd59PmrkyYw04epXtnP-15" value="" style="edgeStyle=elbowEdgeStyle;elbow=horizontal;endArrow=classic;html=1;curved=0;rounded=0;endSize=8;startSize=8;entryX=0;entryY=0.5;entryDx=0;entryDy=0;entryPerimeter=0;exitX=0.835;exitY=0.5;exitDx=0;exitDy=0;exitPerimeter=0;" edge="1" parent="1" source="ZGd59PmrkyYw04epXtnP-46" target="ZGd59PmrkyYw04epXtnP-11">
          <mxGeometry width="50" height="50" relative="1" as="geometry">
            <mxPoint x="390" y="329.75" as="sourcePoint" />
            <mxPoint x="470" y="229.75" as="targetPoint" />
            <Array as="points">
              <mxPoint x="360" y="270" />
            </Array>
          </mxGeometry>
        </mxCell>
        <mxCell id="ZGd59PmrkyYw04epXtnP-16" value="" style="endArrow=classic;html=1;rounded=0;entryX=0;entryY=0.5;entryDx=0;entryDy=0;entryPerimeter=0;" edge="1" parent="1" source="ZGd59PmrkyYw04epXtnP-46" target="ZGd59PmrkyYw04epXtnP-13">
          <mxGeometry width="50" height="50" relative="1" as="geometry">
            <mxPoint x="370" y="310.4" as="sourcePoint" />
            <mxPoint x="490" y="305" as="targetPoint" />
          </mxGeometry>
        </mxCell>
        <mxCell id="ZGd59PmrkyYw04epXtnP-17" value="get" style="text;strokeColor=none;align=center;fillColor=none;html=1;verticalAlign=middle;whiteSpace=wrap;rounded=0;" vertex="1" parent="1">
          <mxGeometry x="400" y="193.75" width="70" height="26.25" as="geometry" />
        </mxCell>
        <mxCell id="ZGd59PmrkyYw04epXtnP-18" value="post" style="text;strokeColor=none;align=center;fillColor=none;html=1;verticalAlign=middle;whiteSpace=wrap;rounded=0;" vertex="1" parent="1">
          <mxGeometry x="410" y="389.75" width="60" height="20" as="geometry" />
        </mxCell>
        <mxCell id="ZGd59PmrkyYw04epXtnP-19" value="AWS lambda" style="text;strokeColor=none;align=center;fillColor=none;html=1;verticalAlign=middle;whiteSpace=wrap;rounded=0;" vertex="1" parent="1">
          <mxGeometry x="714.33" y="522.25" width="61" height="30" as="geometry" />
        </mxCell>
        <mxCell id="ZGd59PmrkyYw04epXtnP-20" style="edgeStyle=orthogonalEdgeStyle;rounded=0;orthogonalLoop=1;jettySize=auto;html=1;" edge="1" parent="1" source="ZGd59PmrkyYw04epXtnP-21" target="ZGd59PmrkyYw04epXtnP-24">
          <mxGeometry relative="1" as="geometry">
            <Array as="points">
              <mxPoint x="734.33" y="492.25" />
              <mxPoint x="734.33" y="492.25" />
            </Array>
          </mxGeometry>
        </mxCell>
        <mxCell id="ZGd59PmrkyYw04epXtnP-21" value="" style="sketch=0;points=[[0,0,0],[0.25,0,0],[0.5,0,0],[0.75,0,0],[1,0,0],[0,1,0],[0.25,1,0],[0.5,1,0],[0.75,1,0],[1,1,0],[0,0.25,0],[0,0.5,0],[0,0.75,0],[1,0.25,0],[1,0.5,0],[1,0.75,0]];outlineConnect=0;fontColor=#232F3E;gradientColor=#945DF2;gradientDirection=north;fillColor=#5A30B5;strokeColor=#ffffff;dashed=0;verticalLabelPosition=bottom;verticalAlign=top;align=center;html=1;fontSize=12;fontStyle=0;aspect=fixed;shape=mxgraph.aws4.resourceIcon;resIcon=mxgraph.aws4.kinesis_data_streams;rotation=-180;" vertex="1" parent="1">
          <mxGeometry x="573.04" y="450.24999999999994" width="86.71" height="86.71" as="geometry" />
        </mxCell>
        <mxCell id="ZGd59PmrkyYw04epXtnP-22" style="edgeStyle=orthogonalEdgeStyle;rounded=0;orthogonalLoop=1;jettySize=auto;html=1;" edge="1" parent="1" source="ZGd59PmrkyYw04epXtnP-24" target="ZGd59PmrkyYw04epXtnP-29">
          <mxGeometry relative="1" as="geometry" />
        </mxCell>
        <mxCell id="ZGd59PmrkyYw04epXtnP-23" style="edgeStyle=orthogonalEdgeStyle;rounded=0;orthogonalLoop=1;jettySize=auto;html=1;" edge="1" parent="1" source="ZGd59PmrkyYw04epXtnP-24" target="ZGd59PmrkyYw04epXtnP-28">
          <mxGeometry relative="1" as="geometry" />
        </mxCell>
        <mxCell id="ZGd59PmrkyYw04epXtnP-24" value="" style="outlineConnect=0;dashed=0;verticalLabelPosition=bottom;verticalAlign=top;align=center;html=1;shape=mxgraph.aws3.lambda_function;fillColor=#F58534;gradientColor=none;" vertex="1" parent="1">
          <mxGeometry x="754.33" y="450.25" width="80" height="72" as="geometry" />
        </mxCell>
        <mxCell id="ZGd59PmrkyYw04epXtnP-25" value="Kinesis Datastreams" style="text;strokeColor=none;align=center;fillColor=none;html=1;verticalAlign=middle;whiteSpace=wrap;rounded=0;" vertex="1" parent="1">
          <mxGeometry x="570" y="555" width="92.79" height="30" as="geometry" />
        </mxCell>
        <mxCell id="ZGd59PmrkyYw04epXtnP-26" value="Check for Audlt content" style="text;strokeColor=none;align=center;fillColor=none;html=1;verticalAlign=middle;whiteSpace=wrap;rounded=0;" vertex="1" parent="1">
          <mxGeometry x="800.0000000000001" y="560" width="92.79" height="40" as="geometry" />
        </mxCell>
        <mxCell id="ZGd59PmrkyYw04epXtnP-27" value="" style="outlineConnect=0;dashed=0;verticalLabelPosition=bottom;verticalAlign=top;align=center;html=1;shape=mxgraph.aws3.s3;fillColor=#E05243;gradientColor=none;" vertex="1" parent="1">
          <mxGeometry x="1010" y="130" width="76.5" height="93" as="geometry" />
        </mxCell>
        <mxCell id="ZGd59PmrkyYw04epXtnP-28" value="" style="outlineConnect=0;dashed=0;verticalLabelPosition=bottom;verticalAlign=top;align=center;html=1;shape=mxgraph.aws3.s3;fillColor=#E05243;gradientColor=none;" vertex="1" parent="1">
          <mxGeometry x="754.33" y="650" width="76.5" height="93" as="geometry" />
        </mxCell>
        <mxCell id="ZGd59PmrkyYw04epXtnP-29" value="" style="sketch=0;points=[[0,0,0],[0.25,0,0],[0.5,0,0],[0.75,0,0],[1,0,0],[0,1,0],[0.25,1,0],[0.5,1,0],[0.75,1,0],[1,1,0],[0,0.25,0],[0,0.5,0],[0,0.75,0],[1,0.25,0],[1,0.5,0],[1,0.75,0]];outlineConnect=0;fontColor=#232F3E;gradientColor=#4D72F3;gradientDirection=north;fillColor=#3334B9;strokeColor=#ffffff;dashed=0;verticalLabelPosition=bottom;verticalAlign=top;align=center;html=1;fontSize=12;fontStyle=0;aspect=fixed;shape=mxgraph.aws4.resourceIcon;resIcon=mxgraph.aws4.documentdb_with_mongodb_compatibility;" vertex="1" parent="1">
          <mxGeometry x="840.72" y="142.5" width="78" height="78" as="geometry" />
        </mxCell>
        <mxCell id="ZGd59PmrkyYw04epXtnP-30" value="" style="sketch=0;pointerEvents=1;shadow=0;dashed=0;html=1;strokeColor=none;fillColor=#505050;labelPosition=center;verticalLabelPosition=bottom;verticalAlign=top;outlineConnect=0;align=center;shape=mxgraph.office.servers.application_server_green;" vertex="1" parent="1">
          <mxGeometry x="490" y="371.75" width="46" height="56" as="geometry" />
        </mxCell>
        <mxCell id="ZGd59PmrkyYw04epXtnP-31" style="edgeStyle=orthogonalEdgeStyle;rounded=0;orthogonalLoop=1;jettySize=auto;html=1;" edge="1" parent="1" source="ZGd59PmrkyYw04epXtnP-32">
          <mxGeometry relative="1" as="geometry">
            <mxPoint x="840" y="185" as="targetPoint" />
          </mxGeometry>
        </mxCell>
        <mxCell id="ZGd59PmrkyYw04epXtnP-32" value="" style="outlineConnect=0;dashed=0;verticalLabelPosition=bottom;verticalAlign=top;align=center;html=1;shape=mxgraph.aws3.redis;fillColor=#2E73B8;gradientColor=none;" vertex="1" parent="1">
          <mxGeometry x="659.75" y="140" width="84" height="90" as="geometry" />
        </mxCell>
        <mxCell id="ZGd59PmrkyYw04epXtnP-33" value="&lt;font color=&quot;#d90808&quot; style=&quot;font-size: 25px;&quot;&gt;&lt;b&gt;FACEBOOK NEWS FEED&lt;/b&gt;&lt;/font&gt;" style="text;align=center;html=1;verticalAlign=middle;whiteSpace=wrap;rounded=1;strokeWidth=7;perimeterSpacing=2;fillStyle=solid;" vertex="1" parent="1">
          <mxGeometry x="330" y="40" width="400" height="30" as="geometry" />
        </mxCell>
        <mxCell id="ZGd59PmrkyYw04epXtnP-34" value="Reddis" style="text;strokeColor=none;align=center;fillColor=none;html=1;verticalAlign=middle;whiteSpace=wrap;rounded=0;" vertex="1" parent="1">
          <mxGeometry x="620" y="230" width="85.33" height="29.5" as="geometry" />
        </mxCell>
        <mxCell id="ZGd59PmrkyYw04epXtnP-35" value="Document database" style="text;strokeColor=none;align=center;fillColor=none;html=1;verticalAlign=middle;whiteSpace=wrap;rounded=0;" vertex="1" parent="1">
          <mxGeometry x="795" y="240" width="85.33" height="29.5" as="geometry" />
        </mxCell>
        <mxCell id="ZGd59PmrkyYw04epXtnP-36" value="Storing images /videos" style="text;strokeColor=none;align=center;fillColor=none;html=1;verticalAlign=middle;whiteSpace=wrap;rounded=0;" vertex="1" parent="1">
          <mxGeometry x="950" y="230" width="85.33" height="29.5" as="geometry" />
        </mxCell>
        <mxCell id="ZGd59PmrkyYw04epXtnP-37" value="" style="shape=flexArrow;endArrow=classic;startArrow=classic;html=1;rounded=0;entryX=0;entryY=0.5;entryDx=0;entryDy=0;entryPerimeter=0;startWidth=9;startSize=4.88;endWidth=9;endSize=7.16;" edge="1" parent="1" target="ZGd59PmrkyYw04epXtnP-27">
          <mxGeometry width="100" height="100" relative="1" as="geometry">
            <mxPoint x="920" y="180" as="sourcePoint" />
            <mxPoint x="1000" y="174" as="targetPoint" />
          </mxGeometry>
        </mxCell>
        <mxCell id="ZGd59PmrkyYw04epXtnP-38" style="edgeStyle=orthogonalEdgeStyle;rounded=0;orthogonalLoop=1;jettySize=auto;html=1;" edge="1" parent="1" source="ZGd59PmrkyYw04epXtnP-39" target="ZGd59PmrkyYw04epXtnP-46">
          <mxGeometry relative="1" as="geometry" />
        </mxCell>
        <mxCell id="ZGd59PmrkyYw04epXtnP-39" value="" style="outlineConnect=0;dashed=0;verticalLabelPosition=bottom;verticalAlign=top;align=center;html=1;shape=mxgraph.aws3.traditional_server;fillColor=#7D7C7C;gradientColor=none;" vertex="1" parent="1">
          <mxGeometry x="260" y="150" width="46.5" height="90" as="geometry" />
        </mxCell>
        <mxCell id="ZGd59PmrkyYw04epXtnP-40" style="edgeStyle=orthogonalEdgeStyle;rounded=0;orthogonalLoop=1;jettySize=auto;html=1;exitX=1;exitY=1;exitDx=0;exitDy=0;exitPerimeter=0;" edge="1" parent="1" source="ZGd59PmrkyYw04epXtnP-1" target="ZGd59PmrkyYw04epXtnP-1">
          <mxGeometry relative="1" as="geometry">
            <Array as="points">
              <mxPoint x="75" y="344" />
            </Array>
          </mxGeometry>
        </mxCell>
        <mxCell id="ZGd59PmrkyYw04epXtnP-41" value="&lt;p style=&quot;line-height: 90%;&quot;&gt;&lt;font style=&quot;font-size: 14px;&quot;&gt;Web server&lt;/font&gt;&lt;/p&gt;" style="text;strokeColor=none;fillColor=none;html=1;fontSize=24;fontStyle=1;verticalAlign=middle;align=center;" vertex="1" parent="1">
          <mxGeometry x="260" y="130" width="70" height="10" as="geometry" />
        </mxCell>
        <mxCell id="ZGd59PmrkyYw04epXtnP-42" style="edgeStyle=orthogonalEdgeStyle;rounded=0;orthogonalLoop=1;jettySize=auto;html=1;exitX=1;exitY=0.5;exitDx=0;exitDy=0;exitPerimeter=0;" edge="1" parent="1" source="ZGd59PmrkyYw04epXtnP-43" target="ZGd59PmrkyYw04epXtnP-46">
          <mxGeometry relative="1" as="geometry" />
        </mxCell>
        <mxCell id="ZGd59PmrkyYw04epXtnP-43" value="" style="outlineConnect=0;dashed=0;verticalLabelPosition=bottom;verticalAlign=top;align=center;html=1;shape=mxgraph.aws3.traditional_server;fillColor=#7D7C7C;gradientColor=none;" vertex="1" parent="1">
          <mxGeometry x="263.5" y="409.75" width="46.5" height="90.25" as="geometry" />
        </mxCell>
        <mxCell id="ZGd59PmrkyYw04epXtnP-44" value="&lt;p style=&quot;line-height: 90%;&quot;&gt;&lt;font style=&quot;font-size: 14px;&quot;&gt;Web server&lt;/font&gt;&lt;/p&gt;" style="text;strokeColor=none;fillColor=none;html=1;fontSize=24;fontStyle=1;verticalAlign=middle;align=center;" vertex="1" parent="1">
          <mxGeometry x="250" y="512.25" width="70" height="10" as="geometry" />
        </mxCell>
        <mxCell id="ZGd59PmrkyYw04epXtnP-45" style="edgeStyle=orthogonalEdgeStyle;rounded=0;orthogonalLoop=1;jettySize=auto;html=1;exitX=1;exitY=0.79;exitDx=0;exitDy=0;exitPerimeter=0;" edge="1" parent="1" source="ZGd59PmrkyYw04epXtnP-46" target="ZGd59PmrkyYw04epXtnP-30">
          <mxGeometry relative="1" as="geometry">
            <Array as="points">
              <mxPoint x="360" y="340" />
              <mxPoint x="360" y="390" />
            </Array>
          </mxGeometry>
        </mxCell>
        <mxCell id="ZGd59PmrkyYw04epXtnP-46" value="" style="outlineConnect=0;dashed=0;verticalLabelPosition=bottom;verticalAlign=top;align=center;html=1;shape=mxgraph.aws3.elastic_load_balancing;fillColor=#F58534;gradientColor=none;" vertex="1" parent="1">
          <mxGeometry x="310" y="290" width="60" height="63.5" as="geometry" />
        </mxCell>
        <mxCell id="ZGd59PmrkyYw04epXtnP-47" value="Feed Generative system" style="text;strokeColor=none;align=center;fillColor=none;html=1;verticalAlign=middle;whiteSpace=wrap;rounded=0;" vertex="1" parent="1">
          <mxGeometry x="480" y="163.75" width="100" height="30" as="geometry" />
        </mxCell>
        <mxCell id="ZGd59PmrkyYw04epXtnP-48" value="Feed Generative system" style="text;strokeColor=none;align=center;fillColor=none;html=1;verticalAlign=middle;whiteSpace=wrap;rounded=0;" vertex="1" parent="1">
          <mxGeometry x="480" y="263.5" width="100" height="30" as="geometry" />
        </mxCell>
        <mxCell id="ZGd59PmrkyYw04epXtnP-49" value="Feed Post system" style="text;strokeColor=none;align=center;fillColor=none;html=1;verticalAlign=middle;whiteSpace=wrap;rounded=0;" vertex="1" parent="1">
          <mxGeometry x="450" y="450.25" width="100" height="30" as="geometry" />
        </mxCell>
      </root>
    </mxGraphModel>
  </diagram>
</mxfile>
